<?xml version="1.0" standalone="no"?>
<!DOCTYPE svg PUBLIC "-//W3C//DTD SVG 20010904//EN"
 "http://www.w3.org/TR/2001/REC-SVG-20010904/DTD/svg10.dtd">
<svg version="1.0" xmlns="http://www.w3.org/2000/svg"
 width="1500.000000pt" height="1500.000000pt" viewBox="0 0 1500.000000 1500.000000"
 preserveAspectRatio="xMidYMid meet">
<metadata>
Created by potrace 1.14, written by Peter Selinger 2001-2017
</metadata>
<g transform="translate(0.000000,1500.000000) scale(0.100000,-0.100000)"
fill="#000000" stroke="none">
<path d="M7258 14995 c-2 -1 -78 -5 -169 -9 -91 -4 -175 -8 -185 -10 -10 -2
-59 -7 -109 -11 -49 -4 -97 -8 -105 -10 -8 -2 -44 -6 -80 -9 -36 -4 -76 -9
-90 -11 -42 -8 -83 -13 -140 -20 -110 -13 -516 -92 -595 -115 -16 -5 -41 -11
-55 -14 -174 -30 -854 -246 -1025 -326 -11 -5 -92 -39 -180 -77 -603 -254
-1227 -635 -1775 -1082 -300 -245 -668 -601 -900 -871 -12 -14 -31 -36 -43
-50 -63 -71 -246 -301 -336 -422 -470 -633 -848 -1363 -1094 -2113 -86 -263
-165 -553 -216 -800 -24 -114 -68 -361 -75 -420 -3 -22 -8 -58 -11 -80 -12
-77 -14 -90 -19 -135 -36 -297 -50 -557 -50 -915 0 -231 8 -488 20 -610 9
-105 26 -261 29 -285 3 -14 11 -79 20 -145 54 -419 178 -938 328 -1380 245
-718 605 -1406 1055 -2015 86 -116 245 -320 293 -375 201 -230 280 -316 429
-466 96 -96 220 -216 274 -265 55 -49 107 -96 116 -104 8 -8 40 -35 70 -60 30
-25 57 -47 60 -50 3 -3 39 -33 80 -65 41 -33 77 -63 80 -66 34 -41 608 -441
725 -504 11 -6 39 -24 63 -39 114 -72 393 -222 587 -317 394 -190 836 -358
1220 -463 72 -20 144 -40 160 -45 138 -43 605 -135 840 -166 82 -10 204 -26
235 -30 19 -3 70 -7 112 -10 43 -4 87 -8 98 -10 121 -23 1052 -24 1200 -1 14
2 57 7 95 10 426 38 859 117 1314 240 248 67 693 222 906 316 210 92 279 123
399 182 1073 530 1999 1306 2720 2277 737 994 1226 2193 1391 3406 24 182 29
219 40 355 4 41 8 86 11 100 23 145 23 1053 0 1178 -2 9 -7 58 -10 107 -4 50
-9 101 -11 115 -2 14 -7 50 -10 80 -3 30 -7 66 -9 80 -3 14 -7 48 -11 75 -28
224 -114 653 -179 890 -115 420 -258 819 -425 1184 -67 146 -235 475 -275 540
-15 22 -26 42 -26 45 0 11 -184 309 -278 451 -93 139 -337 474 -398 545 -12
14 -57 67 -100 119 -291 350 -688 739 -1049 1027 -539 432 -1164 807 -1755
1053 -69 29 -134 56 -145 61 -227 97 -732 260 -1010 325 -168 39 -194 45 -265
59 -121 24 -128 26 -275 50 -77 13 -165 27 -195 31 -30 3 -80 10 -110 15 -80
13 -291 32 -495 46 -92 6 -682 14 -687 9z m492 -240 c113 -3 221 -8 240 -10
19 -1 77 -6 128 -10 52 -3 110 -8 130 -10 97 -12 125 -15 237 -30 66 -8 131
-17 145 -20 14 -2 66 -11 115 -19 50 -9 101 -18 115 -21 14 -2 39 -7 55 -11
151 -29 409 -92 610 -148 546 -153 1226 -451 1720 -754 50 -30 99 -60 110 -66
40 -22 255 -167 337 -226 46 -34 94 -69 108 -78 59 -39 315 -244 438 -350 931
-802 1646 -1829 2072 -2977 149 -404 300 -962 346 -1285 3 -19 9 -57 14 -85
35 -192 65 -488 85 -850 5 -93 5 -539 0 -605 -2 -25 -6 -99 -10 -165 -3 -66
-8 -133 -9 -150 -2 -16 -6 -66 -10 -110 -4 -44 -9 -91 -11 -105 -2 -14 -6 -50
-10 -80 -3 -30 -10 -80 -15 -110 -5 -30 -11 -73 -14 -95 -2 -22 -17 -105 -31
-185 -281 -1555 -1072 -2986 -2240 -4053 -183 -167 -328 -289 -485 -408 -47
-35 -87 -67 -90 -70 -3 -3 -66 -48 -140 -100 -440 -308 -801 -510 -1325 -744
-601 -268 -1465 -491 -2130 -550 -38 -3 -83 -8 -100 -10 -16 -2 -88 -7 -160
-11 -71 -3 -146 -8 -165 -10 -53 -5 -523 -4 -625 1 -157 8 -318 19 -420 30
-22 3 -65 7 -95 11 -48 5 -316 43 -420 60 -402 63 -999 232 -1427 403 -278
110 -662 292 -841 398 -41 24 -75 43 -78 43 -21 0 -467 287 -647 417 -145 104
-424 324 -493 388 -6 5 -39 35 -74 65 -220 190 -520 497 -724 740 -49 58 -100
118 -113 134 -91 103 -443 593 -443 614 0 6 -4 12 -8 14 -12 5 -197 312 -285
473 -383 705 -660 1512 -783 2285 -2 14 -7 41 -10 60 -3 19 -8 51 -10 70 -2
19 -11 82 -19 140 -8 58 -17 141 -20 185 -4 44 -8 90 -10 103 -2 13 -7 80 -10
150 -4 70 -8 150 -10 177 -5 67 -5 514 -1 590 3 33 7 116 11 185 3 69 8 139
10 155 3 17 7 59 10 95 20 240 95 692 150 910 8 30 16 66 19 80 12 59 71 276
113 410 124 402 264 752 449 1121 72 144 116 224 256 469 162 283 513 767 753
1040 216 245 467 498 680 684 50 43 104 91 120 105 258 226 686 526 1073 752
638 372 1428 669 2177 818 210 42 467 82 620 97 39 3 77 8 86 9 9 2 61 7 115
10 55 4 110 9 124 11 14 1 124 6 245 10 121 3 221 7 222 8 2 2 17 1 35 0 18
-1 125 -5 238 -9z"/>
<path d="M7249 14696 c-2 -2 -72 -6 -155 -10 -83 -4 -160 -8 -170 -10 -10 -2
-59 -7 -108 -11 -49 -4 -98 -8 -110 -10 -11 -2 -48 -6 -81 -10 -70 -7 -249
-32 -285 -40 -14 -3 -68 -12 -120 -21 -52 -9 -167 -31 -255 -50 -1069 -231
-2098 -721 -2955 -1408 -69 -56 -127 -103 -130 -106 -3 -3 -34 -30 -70 -60
-264 -222 -640 -605 -856 -872 -33 -40 -65 -80 -73 -88 -76 -79 -424 -577
-548 -785 -60 -100 -73 -124 -166 -290 -134 -241 -341 -697 -421 -926 -79
-230 -103 -301 -137 -411 -94 -305 -195 -763 -234 -1058 -3 -25 -8 -56 -10
-70 -2 -14 -6 -47 -10 -75 -3 -27 -7 -63 -9 -80 -11 -92 -23 -239 -33 -410
-14 -241 -7 -839 12 -980 2 -16 6 -61 10 -100 6 -77 23 -229 30 -278 28 -191
51 -326 80 -481 64 -336 217 -847 365 -1218 269 -670 627 -1283 1084 -1853 44
-55 82 -102 85 -105 3 -3 33 -36 66 -75 109 -127 119 -139 215 -239 364 -381
700 -673 1090 -947 180 -127 442 -294 585 -374 174 -98 233 -128 400 -210 560
-274 1095 -456 1730 -591 164 -35 503 -85 700 -104 61 -6 126 -13 147 -15 169
-20 724 -27 983 -12 136 7 169 10 305 22 156 14 505 63 602 84 24 5 60 12 80
15 20 3 97 19 170 35 877 196 1683 539 2428 1034 143 94 480 340 521 379 8 7
47 40 88 73 280 226 685 626 897 885 16 19 31 37 35 40 3 3 52 64 108 135 56
72 109 137 116 146 39 49 221 309 286 409 225 344 444 753 588 1100 29 69 57
134 61 145 64 143 191 519 260 770 65 236 147 617 175 815 4 25 8 56 10 70 15
99 34 260 40 340 4 41 8 93 11 115 24 256 24 1002 0 1155 -3 14 -7 61 -11 105
-5 78 -11 130 -19 190 -3 17 -10 68 -16 115 -39 298 -117 669 -204 977 -267
944 -734 1833 -1362 2600 -721 878 -1667 1593 -2689 2033 -93 40 -184 79 -201
86 -116 50 -454 166 -669 229 -202 60 -591 150 -770 178 -181 29 -228 36 -280
43 -33 4 -62 8 -65 9 -3 1 -41 5 -85 9 -44 4 -92 9 -108 11 -15 2 -73 7 -130
10 -56 4 -113 9 -127 11 -28 5 -686 14 -691 10z"/>
</g>
</svg>
